<svg xmlns="http://www.w3.org/2000/svg" viewBox="0 0 64 64" width="64" height="64">
  <rect width="64" height="64" rx="14" fill="#0b0c10"/>
  <g stroke="#7dd3a0" stroke-width="2.5" fill="none">
    <path d="M32 18v10M32 36v10M22 32h-6M48 32h-6M25 25l-5-5M39 39l5 5M39 25l5-5M25 39l-5 5"/>
  </g>
  <circle cx="32" cy="32" r="6" fill="#7dd3a0"/>
  <g fill="#2b4438">
    <circle cx="32" cy="14" r="4"/><circle cx="32" cy="50" r="4"/>
    <circle cx="14" cy="32" r="4"/><circle cx="50" cy="32" r="4"/>
    <circle cx="18" cy="18" r="3"/><circle cx="46" cy="46" r="3"/>
    <circle cx="46" cy="18" r="3"/><circle cx="18" cy="46" r="3"/>
  </g>
</svg>
